Land_normalized_Motion_pl08
version=1
nRows=20
nColumns=43
inDegrees=yes
endheader
time		pelvis_tilt		pelvis_list		pelvis_rotation		pelvis_tx		pelvis_ty		pelvis_tz		hip_flexion_r		hip_adduction_r		hip_rotation_r		knee_angle_r		ankle_angle_r		subtalar_angle_r		mtp_angle_r		hip_flexion_l		hip_adduction_l		hip_rotation_l		knee_angle_l		ankle_angle_l		subtalar_angle_l		mtp_angle_l		lumbar_extension		lumbar_bending		lumbar_rotation		neck_flexion		neck_lateral_bending		neck_rotation		arm_flex_r		arm_add_r		arm_rot_r		elbow_flex_r		pro_sup_r		wrist_flex_r		wrist_dev_r		hand_finger_flex_r		arm_flex_l		arm_add_l		arm_rot_l		elbow_flex_l		pro_sup_l		wrist_flex_l		wrist_dev_l		hand_finger_flex_l		
0.652500		0.885162		5.788770		87.209673		0.023264		1.027630		0.579340		26.968070		-2.769552		-11.748388		-26.652860		-17.216312		-2.997743		-1.724702		25.994892		-9.072542		-12.505266		-25.504708		-28.527224		7.073074		10.597747		-24.901007		-2.110535		5.047139		-24.872937		5.823953		-3.274682		-70.340374		-7.503955		-30.695923		79.488966		107.822293		-4.849594		-23.948817		-11.672986		-63.043649		-10.987148		-21.009854		52.307792		118.083667		-25.645342		-13.320006		-8.037895		
0.655707		0.835017		6.007025		87.324513		0.022711		1.014743		0.573470		27.485817		-2.880694		-11.140746		-28.253733		-17.205056		-2.630121		-1.736758		26.639969		-8.940896		-11.543985		-27.416777		-28.826567		6.815187		10.455518		-25.172969		-2.120627		4.968697		-24.513434		5.722604		-3.276116		-69.533306		-7.525494		-30.691352		79.031560		107.790480		-4.818529		-23.918493		-11.719694		-62.239329		-10.729235		-21.258610		51.906694		117.923486		-25.905849		-13.296015		-7.821061		
0.658914		0.823164		6.331222		87.423198		0.022178		1.001866		0.567768		27.951755		-2.930626		-10.453437		-29.898130		-17.409178		-2.159421		-1.738260		27.183469		-8.844406		-10.715609		-29.291358		-29.263718		6.705309		10.408239		-25.605441		-2.091906		4.836497		-24.063919		5.642822		-3.310429		-68.679257		-7.601876		-30.751852		78.724098		107.730878		-4.822452		-23.883696		-11.758433		-61.397362		-10.481641		-21.422057		51.543414		117.767980		-26.063394		-13.173046		-7.714157		
0.662121		0.771902		6.450807		87.582731		0.021562		0.988538		0.562337		28.734786		-3.013659		-9.574637		-31.654778		-17.548603		-1.321610		-1.677317		28.049177		-8.600699		-9.606669		-31.223728		-29.624004		6.324633		10.478989		-25.887068		-2.064514		4.662700		-23.264509		5.469929		-3.357783		-67.777713		-7.734270		-30.738756		78.372597		107.618171		-4.742570		-23.967643		-11.795546		-60.411561		-10.192761		-21.665627		51.096903		117.542161		-26.402559		-13.154723		-7.471614		
0.665328		0.736785		6.763505		87.666120		0.021015		0.975480		0.556767		29.284462		-3.053294		-8.814200		-33.315880		-17.720743		-0.611676		-1.551234		28.634690		-8.419494		-8.841670		-33.080594		-29.766945		6.124160		10.751429		-26.338231		-2.052582		4.526617		-22.806073		5.341870		-3.419851		-66.796683		-7.908700		-30.733058		78.054431		107.488632		-4.673304		-24.015300		-11.831763		-59.457764		-9.977490		-21.730454		50.725654		117.372140		-26.597699		-13.129839		-7.230688		
0.668535		0.683880		7.200077		87.769048		0.020520		0.962539		0.551146		29.636350		-3.143328		-8.160412		-34.907607		-17.563291		0.630531		0.189160		29.054399		-8.248551		-8.283305		-34.898977		-29.721690		6.212623		14.008894		-26.951482		-2.065702		4.455115		-22.286637		5.115310		-3.487900		-65.727352		-8.135120		-30.640605		77.543083		106.862726		-4.345285		-24.304997		-11.991932		-58.418122		-9.909111		-21.644812		50.285359		116.847573		-27.293887		-13.562737		-5.847717		
0.671742		0.699606		7.499869		87.829229		0.020041		0.949072		0.545762		30.258878		-3.040744		-7.176613		-36.726240		-17.307254		1.560416		5.740351		29.672529		-8.127071		-7.487734		-36.930301		-28.702544		6.626890		23.547745		-27.486851		-1.986639		4.366677		-21.276115		4.824630		-3.672052		-64.779489		-8.435245		-30.601364		77.424173		106.634858		-4.055396		-24.369138		-12.320625		-57.309090		-9.854607		-21.231578		49.848463		116.016392		-28.760445		-13.502559		-2.744585		
0.674949		0.689062		7.827892		87.926364		0.019541		0.935721		0.540252		30.838894		-2.949477		-6.355308		-38.741439		-15.753190		2.167922		8.230809		30.274028		-7.912310		-6.798352		-39.238500		-25.920992		6.286984		27.003094		-27.972410		-1.940678		4.266679		-20.913869		4.712086		-3.757198		-63.779494		-8.726970		-30.553510		77.213315		106.355180		-3.770460		-24.739423		-12.332121		-56.281716		-9.744640		-21.231160		49.567444		115.902845		-29.027157		-13.721773		-2.083143		
0.678157		0.713540		8.183858		88.004007		0.019114		0.922344		0.534976		31.367979		-2.744051		-5.494453		-40.979077		-12.861030		2.677198		9.983478		30.882356		-7.790138		-6.101036		-41.842588		-21.691609		6.935753		28.771419		-28.583802		-1.864069		4.197753		-20.134869		4.527919		-3.811642		-62.731171		-9.137494		-30.381458		77.053999		105.893778		-3.511616		-24.957130		-12.319272		-55.185049		-9.682381		-21.198171		49.364853		115.716676		-28.879491		-13.888381		-1.766940		
0.681364		0.768809		8.478602		88.084635		0.018723		0.908905		0.529939		31.952271		-2.463646		-4.723157		-43.426736		-9.049689		2.917702		11.660037		31.611064		-7.693964		-5.400457		-44.687321		-16.719144		7.518124		30.057549		-29.171845		-1.758044		4.139585		-19.283568		4.352662		-3.859098		-61.636234		-9.605881		-30.158863		76.975265		105.502355		-3.256352		-25.000000		-12.270709		-54.041759		-9.669841		-21.083676		49.191191		115.551822		-28.732468		-14.026033		-1.420285		
0.684571		0.848904		8.697352		88.128889		0.018413		0.895412		0.525198		32.634315		-2.118966		-4.084091		-46.063689		-4.578996		2.835419		12.888294		32.490678		-7.622655		-4.680954		-47.755806		-11.343771		7.999558		30.613391		-29.716030		-1.650026		4.091768		-18.408805		4.165542		-3.889060		-60.461579		-10.122808		-29.917710		76.938140		105.149318		-3.021683		-25.000000		-12.197184		-52.877119		-9.683936		-20.909334		49.065002		115.420295		-28.583309		-14.169856		-1.078636		
0.687778		0.987432		8.881021		88.210750		0.018161		0.881953		0.520911		33.411980		-1.744446		-3.617112		-48.913140		0.372856		2.944370		12.975108		33.531186		-7.677411		-4.043627		-51.042533		-5.781779		9.194641		27.827634		-30.330943		-1.480526		4.046441		-17.180686		3.966575		-3.926979		-59.244315		-10.744999		-29.536075		76.932731		104.299545		-2.758990		-25.000000		-11.982251		-51.619161		-9.757589		-20.673901		48.946085		115.002434		-28.623378		-14.536805		-0.128707		
0.690985		1.090711		8.807229		88.198756		0.017691		0.868347		0.517076		34.603866		-1.411460		-3.389088		-51.881248		4.998381		2.186221		10.478558		34.976869		-7.579803		-3.391002		-54.434176		-0.842241		9.239523		23.867945		-30.665952		-1.354602		4.100402		-16.262970		3.889765		-3.955133		-57.980755		-11.416183		-29.202913		76.995622		104.038100		-2.721816		-25.000000		-11.698115		-50.250369		-9.829815		-20.334152		48.845594		114.896410		-28.735908		-14.664589		0.419881		
0.694192		1.246447		8.792646		88.209039		0.017382		0.854908		0.513639		35.904087		-1.038873		-3.216240		-54.967387		9.312154		1.683188		6.438748		36.452292		-7.612474		-2.831930		-57.832767		3.706210		9.651917		17.852582		-31.135520		-1.178590		4.112322		-15.195956		3.744129		-3.981393		-56.646866		-12.120391		-28.839618		77.114227		103.648767		-2.727039		-25.000000		-11.308974		-48.922117		-9.929500		-19.930036		48.859601		114.759164		-28.970435		-14.914673		1.167620		
0.697399		1.414101		8.699356		88.214533		0.016948		0.841600		0.510674		37.495505		-0.683102		-3.088835		-58.107124		12.078924		0.697056		6.563876		38.136484		-7.646378		-2.393595		-61.072957		6.377960		9.242663		17.995259		-31.584635		-0.975325		4.116902		-14.080107		3.614747		-3.995838		-55.231778		-12.846131		-28.559103		77.318992		103.743268		-2.624562		-25.000000		-11.238102		-47.554911		-10.005588		-19.557937		49.031386		114.903801		-28.884938		-14.966001		1.206714		
0.700606		1.561990		8.454351		88.140206		0.016737		0.828458		0.508247		39.352555		-0.256115		-2.964515		-61.083102		14.785171		-0.562178		0.728591		40.111934		-7.713809		-1.935575		-64.359355		9.028634		9.531509		13.410462		-31.952172		-0.870933		4.197616		-12.796769		3.430494		-3.932673		-53.602768		-13.626935		-28.116131		77.363164		103.449694		-2.811124		-25.000000		-10.784653		-46.004524		-10.155192		-19.026554		48.912017		115.466361		-29.773484		-15.476459		1.408447		
0.703813		1.635870		8.106034		88.147473		0.016282		0.815408		0.506180		41.562039		-0.112854		-3.064749		-64.196440		16.043496		-1.386490		0.702164		42.230561		-7.610828		-1.485887		-67.363814		10.438096		9.071910		13.530314		-32.246313		-0.777166		4.257275		-11.554089		3.387209		-3.983068		-51.986470		-14.352196		-27.812790		77.502304		103.551870		-2.718386		-25.000000		-10.709299		-44.369394		-10.299312		-18.679010		49.073319		115.573492		-29.627172		-15.391442		1.489603		
0.707020		1.730325		7.820509		88.145862		0.015974		0.802669		0.504449		43.785642		0.143509		-3.000477		-67.278811		16.894436		-2.317078		0.648166		44.344222		-7.602448		-1.142358		-70.310764		11.369530		8.674404		13.642711		-32.661253		-0.679973		4.288898		-10.228485		3.328850		-4.009127		-50.318823		-15.120246		-27.469052		77.765822		103.649248		-2.626115		-25.000000		-10.637256		-42.773518		-10.477275		-18.259139		49.361240		115.816044		-29.656520		-15.474469		1.508182		
0.710227		1.768853		7.276921		88.141410		0.015794		0.790054		0.503240		46.348885		0.430742		-2.898725		-70.209403		16.759432		-4.072865		0.401487		46.800629		-7.501336		-0.733905		-73.178976		11.722053		8.010178		13.894131		-32.846488		-0.683983		4.298762		-8.917914		3.367157		-3.941919		-48.387863		-15.899739		-27.063134		77.792860		103.746839		-2.655829		-25.000000		-10.569122		-40.992515		-10.692864		-17.781285		49.390614		116.442425		-30.262008		-15.605378		1.396774		
0.713434		1.791802		7.049149		88.138281		0.015734		0.778153		0.502085		48.551812		0.669473		-2.804700		-73.156948		16.823672		-5.135882		0.393699		48.842680		-7.418065		-0.425343		-75.923732		12.214354		7.512661		14.229804		-33.435855		-0.720229		4.325785		-7.318871		3.304048		-3.910580		-46.446760		-16.656356		-26.659761		77.939995		103.843605		-2.657538		-25.000000		-10.506520		-39.234468		-10.947857		-17.367607		49.698846		116.951780		-30.627516		-15.668157		1.386545		
